<svg width="178" height="34" viewBox="0 0 178 34" fill="none" xmlns="http://www.w3.org/2000/svg">
<g clip-path="url(#clip0_117_1288)">
<path d="M74.0875 0.737793L76.612 15.8603L78.7889 0.737793H84.5757L81.1975 23.3971H73.5936L71.4472 12.0065L69.4471 23.3971H61.7822L58.4102 0.737793H64.3738L66.3677 15.8603L68.7764 0.737793H74.0936H74.0875Z" fill="white"/>
<path d="M95.3931 0.737793V23.3971H88.9355V0.737793H95.3931Z" fill="white"/>
<path d="M106.468 6.98825C106.468 7.92121 107.206 8.27488 110.316 9.3054C116.395 11.3177 116.773 12.6104 116.773 16.2873V18.6533C116.773 22.5132 112.956 23.8974 108.462 23.8974C103.968 23.8974 100.297 22.5132 100.297 18.6533V15.3483H106.376V17.9155C106.376 18.9033 107.376 19.4277 108.523 19.4277C109.669 19.4277 110.7 18.8972 110.7 17.9155V17.2874C110.7 14.9154 110.2 14.4885 106.706 13.4031C101.535 11.8177 100.394 10.3542 100.394 7.35412V5.46381C100.394 1.60392 104.065 0.219727 108.559 0.219727C113.053 0.219727 116.724 1.60392 116.724 5.46381V7.75657H110.645V6.16505C110.645 5.18331 109.706 4.65281 108.559 4.65281C107.328 4.65281 106.474 5.05526 106.474 6.037V6.96996L106.468 6.98825Z" fill="white"/>
<path d="M121.748 23.3971V0.737793H136.316V5.53064H127.919V9.71372H136.023V14.1285H127.919V23.4032H121.754L121.748 23.3971Z" fill="white"/>
<path d="M146.188 19.5921L145.627 23.3971H139.492L143.224 0.737793H153.621L157.407 23.3971H151.212L150.627 19.5921H146.194H146.188ZM148.419 4.69525L146.864 15.0554H149.95L148.419 4.69525Z" fill="white"/>
<path d="M171.683 15.2566H178V18.6592C178 22.519 174.415 23.9032 169.921 23.9032C165.427 23.9032 161.609 22.519 161.609 18.6592V5.48188C161.609 1.62199 165.28 0.237793 169.774 0.237793C174.268 0.237793 178 1.62199 178 5.48188V8.07953H171.835V6.31727C171.835 5.32943 170.927 4.80502 169.78 4.80502C168.634 4.80502 167.78 5.33553 167.78 6.31727V17.836C167.78 18.8177 168.634 19.3482 169.78 19.3482C170.927 19.3482 171.689 18.8177 171.689 17.836V15.2627L171.683 15.2566Z" fill="white"/>
<path d="M62.1233 26.9585H62.666L63.5746 30.4647L64.3856 26.9585H65.0441L65.8368 30.4647L66.7393 26.9585H67.2698L66.1661 31.1782H65.5075L64.6904 27.6171L63.8611 31.1782H63.2209L62.1172 26.9585H62.1233Z" fill="white"/>
<path d="M68.2578 26.9585H68.7822V31.1843H68.2578V26.9585Z" fill="white"/>
<path d="M69.9102 30.8854L70.0809 30.3915C70.3797 30.5866 70.8797 30.7574 71.2761 30.7574C71.8797 30.7574 72.27 30.4342 72.27 29.9951C72.27 29.6171 72.0383 29.4037 71.5078 29.2939L71.0443 29.1902C70.4894 29.0683 69.9833 28.6963 69.9833 28.0378C69.9833 27.3792 70.5077 26.9097 71.3919 26.9097C71.9468 26.9097 72.4651 27.0926 72.7395 27.2938L72.5444 27.7329C72.2822 27.5499 71.8675 27.3853 71.3858 27.3853C70.8614 27.3853 70.5382 27.6292 70.5382 28.0073C70.5382 28.3853 70.837 28.6292 71.2761 28.7268L71.709 28.8122C72.4346 28.9768 72.831 29.2939 72.831 29.9708C72.831 30.733 72.1602 31.2574 71.2943 31.2574C70.776 31.2574 70.2089 31.0623 69.9102 30.8854Z" fill="white"/>
<path d="M73.7776 29.7025V29.611C73.7776 28.5317 74.3813 28.0195 75.0947 28.0195C75.4179 28.0195 75.7837 28.1414 75.9728 28.3122V26.6719H76.4911V31.1842H76.0521L75.985 30.8001C75.7959 31.044 75.4423 31.2391 75.0642 31.2391C74.491 31.2391 73.7715 30.8367 73.7715 29.7086L73.7776 29.7025ZM75.9667 30.2818V28.8244C75.8264 28.6171 75.4545 28.4646 75.2106 28.4646C74.7166 28.4646 74.3264 28.8061 74.3264 29.5927V29.6903C74.3264 30.483 74.7288 30.7757 75.1862 30.7757C75.4789 30.7757 75.8508 30.5074 75.9728 30.2757L75.9667 30.2818Z" fill="white"/>
<path d="M77.6133 29.6598V29.6049C77.6133 28.5927 78.2657 27.9829 79.0584 27.9829C79.8512 27.9829 80.4975 28.5805 80.4975 29.5744V29.6354C80.4975 30.6232 79.8329 31.2574 79.0524 31.2574C78.217 31.2574 77.6133 30.6354 77.6133 29.6598ZM79.9487 29.6598V29.5622C79.9487 28.7634 79.5097 28.422 79.0524 28.422C78.5584 28.422 78.156 28.8305 78.156 29.55V29.6598C78.156 30.4586 78.6133 30.8123 79.0646 30.8123C79.5524 30.8123 79.9487 30.3976 79.9487 29.6598Z" fill="white"/>
<path d="M81.5647 28.0681H82.0708V28.4949C82.2781 28.2205 82.6257 28.0132 82.955 28.0132C83.394 28.0132 83.6928 28.2144 83.8087 28.501C84.0343 28.19 84.4428 28.0132 84.7721 28.0132C85.2843 28.0132 85.7356 28.3181 85.7356 28.9888V31.1779H85.2173V29.1047C85.2173 28.6961 84.9551 28.4827 84.6258 28.4827C84.3819 28.4827 84.016 28.6961 83.8757 29.001V31.1718H83.3696V29.0315C83.3696 28.6595 83.1257 28.4705 82.8269 28.4705C82.5281 28.4705 82.2172 28.7449 82.0769 29.0132V31.1718H81.5586V28.062L81.5647 28.0681Z" fill="white"/>
<path d="M89.0703 26.9585H91.6619V27.4219H89.5886V28.7269H91.4667V29.2025H89.5886V31.1843H89.0703V26.9646V26.9585Z" fill="white"/>
<path d="M93.6486 26.9585H94.1913L95.7707 31.1782H95.1731L94.7584 30.044H93.0084L92.6059 31.1782H92.0449L93.6486 26.9585ZM93.1791 29.5988H94.606L93.8925 27.5744L93.1791 29.5988Z" fill="white"/>
<path d="M96.4065 29.111V29.0012C96.4065 27.6231 97.3943 26.9097 98.3822 26.9097C98.9249 26.9097 99.3639 27.0682 99.6139 27.2511L99.4371 27.7085C99.1749 27.5072 98.8212 27.3853 98.4005 27.3853C97.6748 27.3853 96.9492 27.9585 96.9492 28.989V29.0866C96.9492 30.0134 97.5468 30.7208 98.3395 30.7208C98.7907 30.7208 99.2602 30.5805 99.5529 30.3488L99.7298 30.7818C99.4432 31.0379 98.8822 31.2208 98.2968 31.2208C97.2724 31.2208 96.4004 30.4281 96.4004 29.1049L96.4065 29.111Z" fill="white"/>
<path d="M101.033 30.2935V28.5069H100.527V28.0679H101.033V27.2812H101.552V28.0679H102.479V28.5069H101.552V30.2021C101.552 30.5679 101.71 30.7509 102.033 30.7509C102.186 30.7509 102.473 30.6777 102.607 30.5801L102.704 31.0192C102.552 31.1228 102.21 31.2204 101.905 31.2204C101.424 31.2204 101.033 30.946 101.033 30.2935Z" fill="white"/>
<path d="M103.32 29.6598V29.6049C103.32 28.5927 103.973 27.9829 104.765 27.9829C105.558 27.9829 106.205 28.5805 106.205 29.5744V29.6354C106.205 30.6232 105.54 31.2574 104.759 31.2574C103.924 31.2574 103.32 30.6354 103.32 29.6598ZM105.65 29.6598V29.5622C105.65 28.7634 105.211 28.422 104.759 28.422C104.265 28.422 103.857 28.8305 103.857 29.55V29.6598C103.857 30.4586 104.314 30.8123 104.772 30.8123C105.259 30.8123 105.656 30.3976 105.656 29.6598H105.65Z" fill="white"/>
<path d="M107.272 28.0681H107.79V28.4827C107.955 28.19 108.272 28.0132 108.577 28.0132C108.79 28.0132 109.01 28.0559 109.15 28.1595L109.003 28.6595C108.894 28.5864 108.699 28.5193 108.534 28.5193C108.223 28.5193 107.985 28.6839 107.784 28.9827V31.1718H107.266V28.0681H107.272Z" fill="white"/>
<path d="M109.602 32.3L109.705 31.8609C109.827 31.9158 110.041 31.9524 110.126 31.9463C110.413 31.9463 110.595 31.7695 110.73 31.4768L110.913 31.0621L109.644 28.062H110.248L111.175 30.4462L112.065 28.062H112.644L111.242 31.5195C110.998 32.1292 110.62 32.4097 110.175 32.4097C110.022 32.4097 109.724 32.3609 109.608 32.2878L109.602 32.3Z" fill="white"/>
<path d="M115.455 29.6598V29.6049C115.455 28.5927 116.114 27.9829 116.9 27.9829C117.687 27.9829 118.339 28.5805 118.339 29.5744V29.6354C118.339 30.6232 117.675 31.2574 116.894 31.2574C116.059 31.2574 115.455 30.6354 115.455 29.6598ZM117.791 29.6598V29.5622C117.791 28.7634 117.351 28.422 116.894 28.422C116.394 28.422 115.998 28.8305 115.998 29.55V29.6598C115.998 30.4586 116.455 30.8123 116.906 30.8123C117.394 30.8123 117.791 30.3976 117.791 29.6598Z" fill="white"/>
<path d="M119.517 28.5073H119.041V28.0682H119.517V27.6841C119.517 26.9523 119.943 26.6475 120.456 26.6475C120.718 26.6475 120.974 26.7267 121.096 26.7999L120.974 27.2146C120.87 27.1475 120.687 27.0987 120.523 27.0987C120.187 27.0987 120.029 27.2816 120.029 27.6963V28.0743H120.864V28.5134H120.029V31.1781H119.511V28.5134L119.517 28.5073Z" fill="white"/>
<path d="M123.877 26.9585H124.548L126.499 30.3793V26.9585H127.018V31.1782H126.371L124.389 27.678V31.1782H123.871V26.9585H123.877Z" fill="white"/>
<path d="M128.139 29.7025V29.5866C128.139 28.5134 128.803 27.9829 129.517 27.9829C130.303 27.9829 130.822 28.5134 130.822 29.4647V29.7513H128.681C128.694 30.4708 129.127 30.7818 129.694 30.7818C130.059 30.7818 130.45 30.6293 130.639 30.483L130.791 30.8855C130.596 31.0562 130.127 31.2452 129.633 31.2452C128.712 31.2452 128.145 30.6232 128.145 29.6964L128.139 29.7025ZM128.675 29.3305H130.303C130.303 28.7085 129.956 28.422 129.517 28.422C129.163 28.422 128.724 28.6963 128.675 29.3305Z" fill="white"/>
<path d="M131.625 28.0679H132.18L132.821 30.568L133.473 28.0679H134.034L134.662 30.568L135.296 28.0679H135.821L134.955 31.1838H134.388L133.735 28.7264L133.077 31.1838H132.485L131.613 28.0679H131.625Z" fill="white"/>
<path d="M140.505 31.184H139.975V27.4278H138.621V26.9644H141.883V27.4278H140.511V31.184H140.505Z" fill="white"/>
<path d="M142.084 29.7025V29.5866C142.084 28.5134 142.749 27.9829 143.462 27.9829C144.249 27.9829 144.767 28.5134 144.767 29.4647V29.7513H142.627C142.639 30.4708 143.072 30.7818 143.639 30.7818C144.005 30.7818 144.395 30.6293 144.578 30.483L144.73 30.8855C144.529 31.0562 144.066 31.2452 143.572 31.2452C142.651 31.2452 142.084 30.6232 142.084 29.6964V29.7025ZM142.621 29.3305H144.249C144.249 28.7085 143.901 28.422 143.462 28.422C143.108 28.422 142.669 28.6963 142.621 29.3305Z" fill="white"/>
<path d="M145.762 29.623V29.5437C145.762 28.5132 146.5 27.9888 147.232 27.9888C147.695 27.9888 148.03 28.129 148.232 28.2937L148.055 28.7205C147.878 28.5863 147.603 28.4461 147.268 28.4461C146.792 28.4461 146.311 28.8486 146.311 29.5193V29.6352C146.311 30.3364 146.75 30.7755 147.311 30.7755C147.64 30.7755 147.939 30.6352 148.097 30.5193L148.25 30.9523C148.067 31.1047 147.628 31.2389 147.238 31.2389C146.414 31.2389 145.756 30.6413 145.756 29.6169L145.762 29.623Z" fill="white"/>
<path d="M149.273 26.6597H149.786V28.5012C150.066 28.1841 150.432 28.0073 150.822 28.0073C151.328 28.0073 151.81 28.3122 151.81 28.9707V31.172H151.298V29.0988C151.298 28.6902 151.011 28.4768 150.627 28.4768C150.365 28.4768 149.987 28.7085 149.792 28.9951V31.1659H149.28V26.6475L149.273 26.6597Z" fill="white"/>
<path d="M153.041 28.0681H153.541V28.4949C153.803 28.1961 154.187 28.0132 154.565 28.0132C155.084 28.0132 155.547 28.3425 155.547 28.9766V31.1779H155.035V29.0925C155.035 28.7083 154.773 28.4766 154.37 28.4766C154.096 28.4766 153.773 28.6778 153.547 28.9705V31.1779H153.041V28.0681Z" fill="white"/>
<path d="M156.639 29.6598V29.6049C156.639 28.5927 157.291 27.9829 158.084 27.9829C158.877 27.9829 159.523 28.5805 159.523 29.5744V29.6354C159.523 30.6232 158.858 31.2574 158.078 31.2574C157.242 31.2574 156.639 30.6354 156.639 29.6598ZM158.974 29.6598V29.5622C158.974 28.7634 158.535 28.422 158.078 28.422C157.578 28.422 157.181 28.8305 157.181 29.55V29.6598C157.181 30.4586 157.639 30.8123 158.09 30.8123C158.578 30.8123 158.974 30.3976 158.974 29.6598Z" fill="white"/>
<path d="M160.627 26.6597H161.145V31.1781H160.627V26.6597Z" fill="white"/>
<path d="M162.25 29.6598V29.6049C162.25 28.5927 162.902 27.9829 163.695 27.9829C164.488 27.9829 165.134 28.5805 165.134 29.5744V29.6354C165.134 30.6232 164.47 31.2574 163.689 31.2574C162.854 31.2574 162.25 30.6354 162.25 29.6598ZM164.579 29.6598V29.5622C164.579 28.7634 164.14 28.422 163.683 28.422C163.189 28.422 162.781 28.8305 162.781 29.55V29.6598C162.781 30.4586 163.238 30.8123 163.695 30.8123C164.183 30.8123 164.579 30.3976 164.579 29.6598Z" fill="white"/>
<path d="M165.951 31.617C165.951 31.2633 166.189 31.0804 166.476 30.9767C166.317 30.8913 166.183 30.7084 166.183 30.5072C166.183 30.2694 166.317 30.1169 166.5 30.0011C166.299 29.8242 166.153 29.5498 166.153 29.184V29.1169C166.153 28.4522 166.683 28.0132 167.36 28.0132C167.531 28.0132 167.72 28.0376 167.836 28.0803H168.891V28.5193L168.293 28.4766C168.439 28.5986 168.543 28.8486 168.543 29.0986V29.1596C168.543 29.8608 167.982 30.2694 167.348 30.2694C167.147 30.2694 166.933 30.2267 166.787 30.1535C166.708 30.1962 166.616 30.2938 166.616 30.3974C166.616 30.5621 166.744 30.6718 166.951 30.6718H167.915C168.433 30.6718 168.952 30.8243 168.952 31.434C168.952 32.0438 168.433 32.4402 167.409 32.4402C166.464 32.4402 165.945 32.178 165.945 31.6231L165.951 31.617ZM168.415 31.5011C168.415 31.1962 168.22 31.117 167.848 31.117H166.921C166.683 31.1779 166.488 31.2816 166.488 31.556C166.488 31.867 166.836 32.0255 167.409 32.0255C168.067 32.0255 168.415 31.8243 168.415 31.5072V31.5011ZM168.043 29.1718V29.0986C168.043 28.6778 167.744 28.4278 167.354 28.4278C166.964 28.4278 166.677 28.69 166.677 29.0986V29.1718C166.677 29.6108 167 29.8486 167.36 29.8486C167.72 29.8486 168.043 29.5864 168.043 29.1779V29.1718Z" fill="white"/>
<path d="M169.592 32.3L169.695 31.8609C169.817 31.9158 170.031 31.9524 170.116 31.9463C170.403 31.9463 170.586 31.7695 170.72 31.4768L170.903 31.0621L169.634 28.062H170.238L171.165 30.4462L172.055 28.062H172.635L171.232 31.5195C170.988 32.1292 170.61 32.4097 170.165 32.4097C170.013 32.4097 169.714 32.3609 169.598 32.2878L169.592 32.3Z" fill="white"/>
<path d="M173.676 30.7572H174.273V31.3365H173.676V30.7572ZM173.676 26.7876H174.273L174.145 30.1292H173.786L173.676 26.7876Z" fill="white"/>
<path d="M46.3126 0.0853688H11.2626L19.9885 19.1165L17.1591 25.1106L5.62215 0H0L15.1774 33.0377H19.0677L22.7752 25.1838L26.3729 33.0377H30.2511H31.995L31.1474 31.1962L27.5558 23.3606V23.3545L25.6228 19.147L28.2205 13.6407H39.7331L42.2088 8.53079H24.9826L22.8423 13.0736L19.2263 5.1953H43.8308L46.3126 0.0853688Z" fill="white"/>
<path d="M31.8736 29.7083L36.386 20.4092H30.7028L29.1113 23.6898L31.8736 29.7083Z" fill="white"/>
<path d="M49.5924 12.159C49.5924 13.6956 48.3485 14.9396 46.8118 14.9396C45.2752 14.9396 44.0312 13.6956 44.0312 12.159C44.0312 10.6224 45.2752 9.37842 46.8118 9.37842C48.3485 9.37842 49.5924 10.6224 49.5924 12.159Z" fill="white"/>
</g>
<defs>
<clipPath id="clip0_117_1288">
<rect width="178" height="33.0377" fill="white"/>
</clipPath>
</defs>
</svg>
