<svg width="178" height="34" viewBox="0 0 178 34" fill="none" xmlns="http://www.w3.org/2000/svg">
<g clip-path="url(#clip0_1_224)">
<path d="M74.0879 0.737793L76.6124 15.8603L78.7893 0.737793H84.5761L81.1979 23.3971H73.594L71.4476 12.0065L69.4475 23.3971H61.7826L58.4106 0.737793H64.3742L66.3682 15.8603L68.7768 0.737793H74.094H74.0879Z" fill="#C8181F"/>
<path d="M95.3935 0.737793V23.3971H88.936V0.737793H95.3935Z" fill="#C8181F"/>
<path d="M106.467 6.98801C106.467 7.92097 107.205 8.27464 110.315 9.30516C116.394 11.3174 116.772 12.6101 116.772 16.2871V18.653C116.772 22.5129 112.955 23.8971 108.461 23.8971C103.967 23.8971 100.296 22.5129 100.296 18.653V15.348H106.376V17.9152C106.376 18.903 107.376 19.4275 108.522 19.4275C109.668 19.4275 110.699 18.8969 110.699 17.9152V17.2871C110.699 14.9151 110.199 14.4883 106.705 13.4029C101.534 11.8174 100.394 10.354 100.394 7.35387V5.46356C100.394 1.60368 104.065 0.219482 108.559 0.219482C113.053 0.219482 116.724 1.60368 116.724 5.46356V7.75633H110.644V6.16481C110.644 5.18307 109.705 4.65256 108.559 4.65256C107.327 4.65256 106.473 5.05501 106.473 6.03675V6.96971L106.467 6.98801Z" fill="#C8181F"/>
<path d="M121.748 23.3971V0.737793H136.316V5.53064H127.919V9.71372H136.023V14.1285H127.919V23.4032H121.754L121.748 23.3971Z" fill="#C8181F"/>
<path d="M146.188 19.5921L145.627 23.3971H139.493L143.225 0.737793H153.621L157.408 23.3971H151.213L150.627 19.5921H146.194H146.188ZM148.42 4.69525L146.865 15.0554H149.95L148.42 4.69525Z" fill="#C8181F"/>
<path d="M171.683 15.2566H178V18.6592C178 22.519 174.415 23.9032 169.921 23.9032C165.426 23.9032 161.609 22.519 161.609 18.6592V5.48188C161.609 1.62199 165.28 0.237793 169.774 0.237793C174.268 0.237793 178 1.62199 178 5.48188V8.07953H171.835V6.31727C171.835 5.32943 170.927 4.80502 169.78 4.80502C168.634 4.80502 167.78 5.33553 167.78 6.31727V17.836C167.78 18.8177 168.634 19.3482 169.78 19.3482C170.927 19.3482 171.689 18.8177 171.689 17.836V15.2627L171.683 15.2566Z" fill="#C8181F"/>
<path d="M62.1241 26.9583H62.6668L63.5754 30.4645L64.3864 26.9583H65.045L65.8377 30.4645L66.7401 26.9583H67.2707L66.167 31.1779H65.5084L64.6913 27.6168L63.862 31.1779H63.2217L62.118 26.9583H62.1241Z" fill="#C8181F"/>
<path d="M68.2584 26.9583H68.7828V31.184H68.2584V26.9583Z" fill="#C8181F"/>
<path d="M69.9109 30.8852L70.0816 30.3913C70.3804 30.5864 70.8804 30.7571 71.2768 30.7571C71.8805 30.7571 72.2707 30.4339 72.2707 29.9949C72.2707 29.6168 72.039 29.4034 71.5085 29.2937L71.0451 29.19C70.4902 29.068 69.9841 28.6961 69.9841 28.0375C69.9841 27.379 70.5085 26.9094 71.3926 26.9094C71.9475 26.9094 72.4659 27.0924 72.7403 27.2936L72.5451 27.7326C72.2829 27.5497 71.8683 27.385 71.3865 27.385C70.8621 27.385 70.539 27.629 70.539 28.007C70.539 28.3851 70.8377 28.629 71.2768 28.7266L71.7097 28.8119C72.4354 28.9766 72.8317 29.2937 72.8317 29.9705C72.8317 30.7327 72.161 31.2571 71.2951 31.2571C70.7768 31.2571 70.2097 31.062 69.9109 30.8852Z" fill="#C8181F"/>
<path d="M73.7769 29.7022V29.6108C73.7769 28.5315 74.3806 28.0192 75.094 28.0192C75.4172 28.0192 75.7831 28.1412 75.9721 28.3119V26.6716H76.4904V31.184H76.0514L75.9843 30.7998C75.7953 31.0437 75.4416 31.2389 75.0635 31.2389C74.4903 31.2389 73.7708 30.8364 73.7708 29.7083L73.7769 29.7022ZM75.966 30.2815V28.8241C75.8258 28.6168 75.4538 28.4644 75.2099 28.4644C74.716 28.4644 74.3257 28.8058 74.3257 29.5925V29.69C74.3257 30.4827 74.7282 30.7754 75.1855 30.7754C75.4782 30.7754 75.8501 30.5071 75.9721 30.2754L75.966 30.2815Z" fill="#C8181F"/>
<path d="M77.6124 29.6596V29.6047C77.6124 28.5924 78.2648 27.9827 79.0575 27.9827C79.8502 27.9827 80.4966 28.5802 80.4966 29.5742V29.6352C80.4966 30.623 79.832 31.2572 79.0514 31.2572C78.216 31.2572 77.6124 30.6352 77.6124 29.6596ZM79.9478 29.6596V29.562C79.9478 28.7632 79.5088 28.4217 79.0514 28.4217C78.5575 28.4217 78.1551 28.8303 78.1551 29.5498V29.6596C78.1551 30.4584 78.6124 30.812 79.0636 30.812C79.5515 30.812 79.9478 30.3974 79.9478 29.6596Z" fill="#C8181F"/>
<path d="M81.5637 28.0681H82.0698V28.4949C82.2772 28.2205 82.6247 28.0132 82.954 28.0132C83.393 28.0132 83.6918 28.2144 83.8077 28.501C84.0333 28.19 84.4419 28.0132 84.7711 28.0132C85.2834 28.0132 85.7346 28.3181 85.7346 28.9888V31.1779H85.2163V29.1047C85.2163 28.6961 84.9541 28.4827 84.6248 28.4827C84.3809 28.4827 84.015 28.6961 83.8748 29.001V31.1718H83.3687V29.0315C83.3687 28.6595 83.1247 28.4705 82.826 28.4705C82.5272 28.4705 82.2162 28.7449 82.0759 29.0132V31.1718H81.5576V28.062L81.5637 28.0681Z" fill="#C8181F"/>
<path d="M89.0701 26.9583H91.6616V27.4217H89.5884V28.7266H91.4665V29.2022H89.5884V31.184H89.0701V26.9644V26.9583Z" fill="#C8181F"/>
<path d="M93.6495 26.9583H94.1922L95.7715 31.1779H95.1739L94.7593 30.0437H93.0092L92.6068 31.1779H92.0458L93.6495 26.9583ZM93.18 29.5986H94.6068L93.8934 27.5741L93.18 29.5986Z" fill="#C8181F"/>
<path d="M96.4057 29.1107V29.001C96.4057 27.6229 97.3935 26.9094 98.3814 26.9094C98.9241 26.9094 99.3631 27.068 99.6131 27.2509L99.4363 27.7082C99.1741 27.507 98.8204 27.385 98.3997 27.385C97.674 27.385 96.9484 27.9582 96.9484 28.9888V29.0863C96.9484 30.0132 97.546 30.7205 98.3387 30.7205C98.7899 30.7205 99.2594 30.5803 99.5521 30.3486L99.729 30.7815C99.4424 31.0376 98.8814 31.2206 98.296 31.2206C97.2716 31.2206 96.3996 30.4278 96.3996 29.1046L96.4057 29.1107Z" fill="#C8181F"/>
<path d="M101.034 30.2938V28.5071H100.528V28.0681H101.034V27.2815H101.552V28.0681H102.479V28.5071H101.552V30.2023C101.552 30.5682 101.711 30.7511 102.034 30.7511C102.186 30.7511 102.473 30.678 102.607 30.5804L102.705 31.0194C102.552 31.1231 102.211 31.2207 101.906 31.2207C101.424 31.2207 101.034 30.9463 101.034 30.2938Z" fill="#C8181F"/>
<path d="M103.321 29.6596V29.6047C103.321 28.5924 103.973 27.9827 104.766 27.9827C105.558 27.9827 106.205 28.5802 106.205 29.5742V29.6352C106.205 30.623 105.54 31.2572 104.76 31.2572C103.924 31.2572 103.321 30.6352 103.321 29.6596ZM105.65 29.6596V29.562C105.65 28.7632 105.211 28.4217 104.76 28.4217C104.266 28.4217 103.857 28.8303 103.857 29.5498V29.6596C103.857 30.4584 104.315 30.812 104.772 30.812C105.26 30.812 105.656 30.3974 105.656 29.6596H105.65Z" fill="#C8181F"/>
<path d="M107.272 28.0681H107.79V28.4827C107.955 28.19 108.272 28.0132 108.577 28.0132C108.79 28.0132 109.01 28.0559 109.15 28.1595L109.004 28.6595C108.894 28.5864 108.699 28.5193 108.534 28.5193C108.223 28.5193 107.985 28.6839 107.784 28.9827V31.1718H107.266V28.0681H107.272Z" fill="#C8181F"/>
<path d="M109.601 32.3L109.705 31.8609C109.827 31.9158 110.04 31.9524 110.126 31.9463C110.412 31.9463 110.595 31.7695 110.729 31.4768L110.912 31.0621L109.644 28.062H110.248L111.175 30.4462L112.065 28.062H112.644L111.242 31.5195C110.998 32.1292 110.62 32.4097 110.175 32.4097C110.022 32.4097 109.723 32.3609 109.607 32.2878L109.601 32.3Z" fill="#C8181F"/>
<path d="M115.455 29.6596V29.6047C115.455 28.5924 116.114 27.9827 116.9 27.9827C117.687 27.9827 118.339 28.5802 118.339 29.5742V29.6352C118.339 30.623 117.675 31.2572 116.894 31.2572C116.059 31.2572 115.455 30.6352 115.455 29.6596ZM117.791 29.6596V29.562C117.791 28.7632 117.352 28.4217 116.894 28.4217C116.394 28.4217 115.998 28.8303 115.998 29.5498V29.6596C115.998 30.4584 116.455 30.812 116.906 30.812C117.394 30.812 117.791 30.3974 117.791 29.6596Z" fill="#C8181F"/>
<path d="M119.516 28.5072H119.041V28.0681H119.516V27.684C119.516 26.9522 119.943 26.6473 120.455 26.6473C120.718 26.6473 120.974 26.7266 121.096 26.7998L120.974 27.2144C120.87 27.1474 120.687 27.0986 120.522 27.0986C120.187 27.0986 120.028 27.2815 120.028 27.6962V28.0742H120.864V28.5133H120.028V31.178H119.51V28.5133L119.516 28.5072Z" fill="#C8181F"/>
<path d="M123.876 26.9583H124.547L126.498 30.3791V26.9583H127.017V31.1779H126.37L124.388 27.6778V31.1779H123.87V26.9583H123.876Z" fill="#C8181F"/>
<path d="M128.139 29.7022V29.5864C128.139 28.5132 128.803 27.9827 129.517 27.9827C130.303 27.9827 130.822 28.5132 130.822 29.4644V29.751H128.681C128.693 30.4706 129.126 30.7815 129.693 30.7815C130.059 30.7815 130.45 30.6291 130.639 30.4828L130.791 30.8852C130.596 31.0559 130.126 31.245 129.633 31.245C128.712 31.245 128.145 30.623 128.145 29.6961L128.139 29.7022ZM128.675 29.3303H130.303C130.303 28.7083 129.956 28.4217 129.517 28.4217C129.163 28.4217 128.724 28.6961 128.675 29.3303Z" fill="#C8181F"/>
<path d="M131.626 28.0681H132.181L132.822 30.5682L133.474 28.0681H134.035L134.663 30.5682L135.297 28.0681H135.822L134.956 31.1841H134.389L133.736 28.7267L133.078 31.1841H132.486L131.614 28.0681H131.626Z" fill="#C8181F"/>
<path d="M140.505 31.184H139.974V27.4278H138.621V26.9644H141.883V27.4278H140.511V31.184H140.505Z" fill="#C8181F"/>
<path d="M142.084 29.7022V29.5864C142.084 28.5132 142.749 27.9827 143.462 27.9827C144.249 27.9827 144.767 28.5132 144.767 29.4644V29.751H142.627C142.639 30.4706 143.072 30.7815 143.639 30.7815C144.005 30.7815 144.395 30.6291 144.578 30.4828L144.731 30.8852C144.529 31.0559 144.066 31.245 143.572 31.245C142.651 31.245 142.084 30.623 142.084 29.6961V29.7022ZM142.621 29.3303H144.249C144.249 28.7083 143.901 28.4217 143.462 28.4217C143.109 28.4217 142.669 28.6961 142.621 29.3303Z" fill="#C8181F"/>
<path d="M145.761 29.623V29.5437C145.761 28.5132 146.499 27.9888 147.231 27.9888C147.694 27.9888 148.029 28.129 148.231 28.2937L148.054 28.7205C147.877 28.5863 147.603 28.4461 147.267 28.4461C146.792 28.4461 146.31 28.8486 146.31 29.5193V29.6352C146.31 30.3364 146.749 30.7755 147.31 30.7755C147.639 30.7755 147.938 30.6352 148.097 30.5193L148.249 30.9523C148.066 31.1047 147.627 31.2389 147.237 31.2389C146.414 31.2389 145.755 30.6413 145.755 29.6169L145.761 29.623Z" fill="#C8181F"/>
<path d="M149.274 26.6595H149.786V28.5011C150.066 28.184 150.432 28.0071 150.822 28.0071C151.329 28.0071 151.81 28.312 151.81 28.9706V31.1719H151.298V29.0986C151.298 28.6901 151.011 28.4767 150.627 28.4767C150.365 28.4767 149.987 28.7084 149.792 28.995V31.1658H149.28V26.6473L149.274 26.6595Z" fill="#C8181F"/>
<path d="M153.042 28.0681H153.542V28.4949C153.804 28.1961 154.188 28.0132 154.566 28.0132C155.085 28.0132 155.548 28.3425 155.548 28.9766V31.1779H155.036V29.0925C155.036 28.7083 154.774 28.4766 154.371 28.4766C154.097 28.4766 153.774 28.6778 153.548 28.9705V31.1779H153.042V28.0681Z" fill="#C8181F"/>
<path d="M156.64 29.6596V29.6047C156.64 28.5924 157.292 27.9827 158.085 27.9827C158.877 27.9827 159.524 28.5802 159.524 29.5742V29.6352C159.524 30.623 158.859 31.2572 158.079 31.2572C157.243 31.2572 156.64 30.6352 156.64 29.6596ZM158.975 29.6596V29.562C158.975 28.7632 158.536 28.4217 158.079 28.4217C157.579 28.4217 157.182 28.8303 157.182 29.5498V29.6596C157.182 30.4584 157.64 30.812 158.091 30.812C158.579 30.812 158.975 30.3974 158.975 29.6596Z" fill="#C8181F"/>
<path d="M160.627 26.6594H161.146V31.1779H160.627V26.6594Z" fill="#C8181F"/>
<path d="M162.249 29.6596V29.6047C162.249 28.5924 162.902 27.9827 163.695 27.9827C164.487 27.9827 165.134 28.5802 165.134 29.5742V29.6352C165.134 30.623 164.469 31.2572 163.689 31.2572C162.853 31.2572 162.249 30.6352 162.249 29.6596ZM164.579 29.6596V29.562C164.579 28.7632 164.14 28.4217 163.682 28.4217C163.189 28.4217 162.78 28.8303 162.78 29.5498V29.6596C162.78 30.4584 163.237 30.812 163.695 30.812C164.182 30.812 164.579 30.3974 164.579 29.6596Z" fill="#C8181F"/>
<path d="M165.951 31.617C165.951 31.2633 166.189 31.0804 166.475 30.9767C166.317 30.8913 166.183 30.7084 166.183 30.5072C166.183 30.2694 166.317 30.1169 166.5 30.0011C166.298 29.8242 166.152 29.5498 166.152 29.184V29.1169C166.152 28.4522 166.683 28.0132 167.359 28.0132C167.53 28.0132 167.719 28.0376 167.835 28.0803H168.89V28.5193L168.292 28.4766C168.439 28.5986 168.542 28.8486 168.542 29.0986V29.1596C168.542 29.8608 167.981 30.2694 167.347 30.2694C167.146 30.2694 166.933 30.2267 166.786 30.1535C166.707 30.1962 166.616 30.2938 166.616 30.3974C166.616 30.5621 166.744 30.6718 166.951 30.6718H167.914C168.433 30.6718 168.951 30.8243 168.951 31.434C168.951 32.0438 168.433 32.4402 167.408 32.4402C166.463 32.4402 165.945 32.178 165.945 31.6231L165.951 31.617ZM168.414 31.5011C168.414 31.1962 168.219 31.117 167.847 31.117H166.92C166.683 31.1779 166.487 31.2816 166.487 31.556C166.487 31.867 166.835 32.0255 167.408 32.0255C168.067 32.0255 168.414 31.8243 168.414 31.5072V31.5011ZM168.042 29.1718V29.0986C168.042 28.6778 167.744 28.4278 167.353 28.4278C166.963 28.4278 166.676 28.69 166.676 29.0986V29.1718C166.676 29.6108 167 29.8486 167.359 29.8486C167.719 29.8486 168.042 29.5864 168.042 29.1779V29.1718Z" fill="#C8181F"/>
<path d="M169.591 32.3L169.695 31.8609C169.817 31.9158 170.03 31.9524 170.116 31.9463C170.402 31.9463 170.585 31.7695 170.719 31.4768L170.902 31.0621L169.634 28.062H170.238L171.164 30.4462L172.055 28.062H172.634L171.231 31.5195C170.988 32.1292 170.61 32.4097 170.164 32.4097C170.012 32.4097 169.713 32.3609 169.597 32.2878L169.591 32.3Z" fill="#C8181F"/>
<path d="M173.677 30.7571H174.274V31.3364H173.677V30.7571ZM173.677 26.7875H174.274L174.146 30.1291H173.787L173.677 26.7875Z" fill="#C8181F"/>
<path d="M46.3126 0.0853688H11.2626L19.9885 19.1165L17.1591 25.1106L5.62215 0H0L15.1774 33.0377H19.0677L22.7752 25.1838L26.3729 33.0377H30.2511H31.995L31.1474 31.1962L27.5558 23.3606V23.3545L25.6228 19.147L28.2205 13.6407H39.7331L42.2088 8.53079H24.9826L22.8423 13.0736L19.2263 5.1953H43.8308L46.3126 0.0853688Z" fill="#C8181F"/>
<path d="M31.8731 29.7083L36.3854 20.4092H30.7023L29.1108 23.6898L31.8731 29.7083Z" fill="#C8181F"/>
<path d="M49.5932 12.159C49.5932 13.6956 48.3492 14.9396 46.8126 14.9396C45.2759 14.9396 44.032 13.6956 44.032 12.159C44.032 10.6224 45.2759 9.37842 46.8126 9.37842C48.3492 9.37842 49.5932 10.6224 49.5932 12.159Z" fill="#C8181F"/>
</g>
<defs>
<clipPath id="clip0_1_224">
<rect width="178" height="33.0377" fill="white"/>
</clipPath>
</defs>
</svg>
